<svg width="237" height="237" viewBox="0 0 237 237" fill="none" xmlns="http://www.w3.org/2000/svg">
<path d="M153.062 0V39.4982H222.187V0H153.062V0ZM162.937 29.6237V9.87456H212.312V29.6237H162.937Z" fill="#0096E6"/>
<path d="M207.359 17.291H197.484V34.5715H207.359V17.291Z" fill="#0096E6"/>
<path d="M177.734 17.291H167.859V34.5715H177.734V17.291Z" fill="#0096E6"/>
<path d="M138.25 29.6237V78.9965C138.25 87.1925 144.866 93.8083 153.062 93.8083H222.187C230.334 93.8083 237 87.1925 237 78.9965V29.6237H138.25V29.6237ZM227.125 78.9965C227.125 81.7122 224.903 83.9337 222.187 83.9337H153.062C150.347 83.9337 148.125 81.7122 148.125 78.9965V39.4982H227.125V78.9965Z" fill="#0096E6"/>
<path d="M227.125 39.4982V78.9965C227.125 81.7122 224.903 83.9338 222.187 83.9338H153.062C150.347 83.9338 148.125 81.7122 148.125 78.9965V39.4982H227.125V39.4982Z" fill="#D0E8F9"/>
<path d="M8.19604 133.159V160.462H51.0044V133.159H8.19604V133.159ZM41.1294 150.587H18.071V143.033H41.1294V150.587V150.587Z" fill="#0096E6"/>
<path d="M44.4375 101.214H14.8125C6.61608 101.214 0 107.88 0 116.026V143.033H59.25V116.026C59.25 107.88 52.5842 101.214 44.4375 101.214ZM9.875 133.159V116.026C9.875 113.311 12.0969 111.089 14.8125 111.089H44.4375C47.1531 111.089 49.375 113.311 49.375 116.026V133.159H9.875Z" fill="#0096E6"/>
<path d="M49.375 116.026V133.159H9.875V116.026C9.875 113.311 12.0969 111.089 14.8125 111.089H44.4375C47.1531 111.089 49.375 113.311 49.375 116.026Z" fill="#D0E8F9"/>
<path d="M143.172 237C115.948 237 93.7966 214.852 93.7966 187.627V103.693C93.7966 87.358 80.5078 74.0698 64.1716 74.0698C47.8354 74.0698 34.5466 87.358 34.5466 103.693V106.162H24.6716V103.693C24.6716 81.9144 42.3917 64.1952 64.1716 64.1952C85.9516 64.1952 103.672 81.9144 103.672 103.693V187.627C103.672 209.406 121.392 227.125 143.172 227.125C164.952 227.125 182.672 209.406 182.672 187.627V88.8816H192.547V187.627C192.547 214.852 170.395 237 143.172 237Z" fill="#0096E6"/>
</svg>
